<?xml version="1.0" standalone="no"?><!DOCTYPE svg PUBLIC "-//W3C//DTD SVG 1.1//EN" "http://www.w3.org/Graphics/SVG/1.1/DTD/svg11.dtd"><svg t="1750663072855" class="icon" viewBox="0 0 1024 1024" version="1.1" xmlns="http://www.w3.org/2000/svg" p-id="7014" xmlns:xlink="http://www.w3.org/1999/xlink" width="200" height="200"><path d="M938.666667 448.213333l-213.333333 88.021333L725.333333 469.333333c0 0-38.272 0-85.333333 0L170.666667 469.333333c-47.061333 0-85.333333 0-85.333333 0l0 341.333333c0 47.061333 0 85.333333 0 85.333333l640 0c0 0 0-27.776 0-64.981333l213.333333 85.333333L938.666667 448.213333zM640 810.666667 170.666667 810.666667l0-256 469.333333 0 0 16.853333 0 0L640 810.666667 640 810.666667 640 810.666667zM853.333333 790.314667l-128-51.2 0-110.506667 128-52.821333L853.333333 790.314667z" fill="#333333" p-id="7015"></path><path d="M277.333333 426.666667C359.68 426.666667 426.666667 359.68 426.666667 277.333333S359.68 128 277.333333 128 128 194.986667 128 277.333333 194.986667 426.666667 277.333333 426.666667zM277.333333 213.333333C312.618667 213.333333 341.333333 242.048 341.333333 277.333333S312.618667 341.333333 277.333333 341.333333 213.333333 312.618667 213.333333 277.333333 242.048 213.333333 277.333333 213.333333z" fill="#333333" p-id="7016"></path><path d="M597.333333 426.666667c70.570667 0 128-57.429333 128-128s-57.429333-128-128-128-128 57.429333-128 128S526.762667 426.666667 597.333333 426.666667zM597.333333 256c23.509333 0 42.666667 19.157333 42.666667 42.666667s-19.157333 42.666667-42.666667 42.666667-42.666667-19.157333-42.666667-42.666667S573.824 256 597.333333 256z" fill="#333333" p-id="7017"></path></svg>